<svg viewBox="0 0 64 64" xmlns="http://www.w3.org/2000/svg"><circle cx="13" cy="13" fill="#c7e755" r="11"/><path d="m10.6 15.4c-2.3-2.4-5.5-3.5-8.6-3.3v1.2c2.8-.2 5.6.8 7.7 3 2.1 2.1 3.1 5 3 7.7h1.2c.2-3.1-.9-6.3-3.3-8.6m13.4-2.7c-2.8.1-5.6-.8-7.7-3-2.1-2.1-3.1-5-3-7.7h-1.2c-.1 3.1 1 6.2 3.3 8.6 2.4 2.4 5.5 3.5 8.6 3.3z" fill="#fff"/><path d="m52.8 34.8 1-1-2.3-2.3 4-4 1.5 1.5 1-1-1.5-1.5 3.8-3.8-1-1-3.8 3.8-3.2-3.2 4-4 3.1 3.1 1-1-3.1-3.1 2.5-2.5-1-1-2.5 2.5-3.1-3.3 3.5-3.5-1-1-3.5 3.5-3.2-3.2 2.5-2.5-1-1-2.5 2.5-3.1-3.1-1 1 3.1 3.1-4 4-3.2-3.2 3.8-3.8-1-1-3.8 3.8-1.5-1.5-1 1 1.5 1.5-4 4-2.3-2.3-1 1 2.3 2.3-4 4-1.5-1.5-1 1 1.5 1.5-3.8 3.8 1 1 3.8-3.8 3.2 3.2-4 4-3.1-3.1-1 1 3.1 3.1-2.5 2.5 1 1 2.5-2.5 3.2 3.2-3.5 3.5 1 1 3.5-3.5 3.2 3.2-2.5 2.5 1 1 2.5-2.5 3.1 3.1 1-1-3.1-3.1 4-4 3.2 3.2-3.8 3.8 1 1 3.7-3.8 1.5 1.5 1-1-1.5-1.5 4-4zm1.7-8.3-4 4-3.2-3.2 4-4zm-13.2 4.8-3.2-3.2 4-4 3.2 3.2zm-3.4-11.4 3.2 3.2-4 4-3.2-3.2zm5-5 3.2 3.2-4 4-3.2-3.2zm.2 8.2 4-4 3.2 3.2-4 4zm12.2-5.8-4 4-3.2-3.2 4-4zm-7.4-7.4 3.2 3.2-4 4-3.1-3.3zm-9.2.8 3.2 3.2-4 4-3.2-3.2zm-9 9 4-4 3.2 3.2-4 4zm-.8 9.2 4-4 3.2 3.2-4 4zm7.3 7.4-3.2-3.2 4-4 3.2 3.2zm9.3-.8-3.2-3.2 4-4 3.2 3.2z" fill="#d0d0d0"/><g fill="#ff717f"><path d="m57.7 7.5c-6.8-6.8-19.4-5.4-28 3.2s-10 21.1-3.2 28c6.9 6.8 19.4 5.4 28-3.2s10-21.1 3.2-28m-28.7 28.7c-5.8-5.8-4.6-16.3 2.7-23.6s17.8-8.5 23.6-2.7 4.6 16.3-2.7 23.6-17.9 8.5-23.6 2.7"/><path d="m38.1 42.9c.7 0-5.8-2.3-5.8-2.3s-8.2 3.7-9.8 2.1 2.1-9.8 2.1-9.8-2.3-6.5-2.4-5.8c-.4 6.5-1.4 12.9-4.5 16.5-.4.5-1 1-1 1l1.9 1.9 1.9 1.9s.5-.6 1-1c3.7-3 10.1-4.1 16.6-4.5"/></g><g fill="#4d4f59"><path d="m3.53 56.721 13.646-13.647 4.88 4.879-13.649 13.647z"/><path d="m10 50.2 3.4 6.3 2.1-2.1-3.4-6.4zm-4.3 4.3 3.4 6.4 2.1-2.2-3.4-6.3z"/></g><path d="m3.5 56.7 4.8 4.9.8-.7-3.4-6.4zm4.3-4.3 3.4 6.3 2.2-2.2-3.4-6.3zm9.4-9.4-.7.7 3.3 6.4 2.2-2.2z" fill="#5f606c"/><path d="m14.3 45.9 3.4 6.3 2.1-2.1-3.3-6.4z" fill="#4d4f59"/><path d="m12.1 48 3.4 6.4 2.2-2.2-3.4-6.3z" fill="#5f606c"/><path d="m3.056 56.263 1.556-1.555 5.727 5.728-1.556 1.555zm12.114-12.094 1.556-1.556 5.726 5.73-1.556 1.555z" fill="#4d4f59"/></svg>